<?xml version="1.0" encoding="utf-8"?>
<!-- Generator: Adobe Illustrator 28.4.1, SVG Export Plug-In . SVG Version: 6.00 Build 0)  -->
<svg version="1.1" id="Layer_1" xmlns="http://www.w3.org/2000/svg" xmlns:xlink="http://www.w3.org/1999/xlink" x="0px" y="0px"
	 viewBox="0 0 110 135" style="enable-background:new 0 0 110 135;" xml:space="preserve">
<style type="text/css">
	.st0{stroke:#000000;stroke-width:4;stroke-miterlimit:10;}
</style>
<path class="st0" d="M76.2,57.1h-0.5c3.6-4.3,5.6-9.6,5.6-15.4c0-13.9-11.8-25.2-26.4-25.2S28.5,27.7,28.5,41.7
	c0,5.8,2.1,11.3,5.6,15.4h-0.3c-12.3,0-22.4,9.6-22.4,21.4v23.4c0,0.9,0.8,1.5,1.6,1.5s1.6-0.8,1.6-1.5V78.5
	c0-10.1,8.6-18.2,19.1-18.2h3.6c4.6,4.1,10.9,6.5,17.6,6.5s13-2.4,17.6-6.5h3.7c10.6,0,19.1,8.2,19.1,18.2v23.4
	c0,0.9,0.8,1.5,1.6,1.5c0.8,0,1.6-0.8,1.6-1.5V78.5C98.6,66.7,88.7,57.1,76.2,57.1L76.2,57.1z M32,41.7c0-12.2,10.3-22,23-22
	s23,9.9,23,22s-10.3,22-23,22S32,53.8,32,41.7z"/>
</svg>
