<?xml version="1.0" encoding="utf-8"?>
<!-- Generator: Adobe Illustrator 28.4.1, SVG Export Plug-In . SVG Version: 6.00 Build 0)  -->
<svg version="1.1" id="Layer_1" xmlns="http://www.w3.org/2000/svg" xmlns:xlink="http://www.w3.org/1999/xlink" x="0px" y="0px"
	 viewBox="0 0 110 135" style="enable-background:new 0 0 110 135;" xml:space="preserve">
<style type="text/css">
	.st0{stroke:#000000;stroke-miterlimit:10;}
</style>
<path class="st0" d="M91.6,37.2H73.5v-0.4c0-10.2-8.3-18.5-18.5-18.5s-18.5,8.3-18.5,18.5v0.4H18.4c-1.3,0-2.4,1.1-2.4,2.4v63.7
	c0,1.3,1.1,2.4,2.4,2.4h73.2c1.3,0,2.4-1.1,2.4-2.4V39.5C93.9,38.2,92.9,37.2,91.6,37.2z M41.2,36.8C41.2,29.2,47.4,23,55,23
	c7.6,0,13.8,6.2,13.8,13.8v0.4H41.2L41.2,36.8z M89.2,100.9H20.8v-59h15.7v9.4c0,1.3,1.1,2.4,2.4,2.4c1.3,0,2.4-1.1,2.4-2.4v-9.4
	h27.6v9.4c0,1.3,1.1,2.4,2.4,2.4s2.4-1.1,2.4-2.4v-9.4h15.7V100.9z"/>
</svg>
