<?xml version="1.0" encoding="utf-8"?>
<!-- Generator: Adobe Illustrator 28.4.1, SVG Export Plug-In . SVG Version: 6.00 Build 0)  -->
<svg version="1.1" id="Layer_1" xmlns="http://www.w3.org/2000/svg" xmlns:xlink="http://www.w3.org/1999/xlink" x="0px" y="0px"
	 viewBox="0 0 110 135" style="enable-background:new 0 0 110 135;" xml:space="preserve">
<path d="M97.5,98.1L77.2,77.8v0c8.4-9.9,11-23.4,7-35.7c-4-12.3-14.2-21.7-26.8-24.7c-12.6-3-25.9,0.7-35,9.9
	c-9.2,9.2-12.9,22.4-9.9,35c3,12.6,12.3,22.8,24.7,26.8c12.3,4,25.8,1.4,35.7-7l20.3,20.3h0c1.2,1.2,3.2,1.2,4.4,0
	C98.7,101.3,98.7,99.4,97.5,98.1L97.5,98.1z M17.8,53.8c0-8.2,3.3-16.1,9.1-21.9s13.7-9.1,21.9-9.1s16.1,3.3,21.9,9.1
	c5.8,5.8,9.1,13.7,9.1,21.9s-3.3,16.1-9.1,21.9c-5.8,5.8-13.7,9.1-21.9,9.1c-8.2,0-16.1-3.3-21.9-9.1C21.1,69.9,17.8,62,17.8,53.8
	L17.8,53.8z"/>
</svg>
