<?xml version="1.0" encoding="utf-8"?>
<svg version="1.1" id="Layer_1" xmlns="http://www.w3.org/2000/svg" xmlns:xlink="http://www.w3.org/1999/xlink" x="0px" y="0px"
	 viewBox="0 0 16 20" style="enable-background:new 0 0 16 20;" xml:space="preserve">
<style type="text/css">
	.st0{fill-rule:evenodd;clip-rule:evenodd;}
</style>
<path class="st0" d="M8,0c2.5,0,4.5,2,4.5,4.5c0,1.6-0.9,3.1-2.2,3.8c3.3,1,5.7,4,5.7,7.7h-1c0-3.9-3.1-7-7-7s-7,3.1-7,7H0
	c0-3.6,2.4-6.7,5.7-7.7C4.4,7.6,3.5,6.1,3.5,4.5C3.5,2,5.5,0,8,0z M8,1C6.1,1,4.5,2.6,4.5,4.5S6.1,8,8,8s3.5-1.6,3.5-3.5S9.9,1,8,1z
	"/>
</svg>
